# xmcd
#
# Track frame offsets: 
#        150
#        8941
#        23899
#        36289
#        47050
#        60540
#        75123
#        87849
#        100253
#        112081
#        123296
#        134469
#        147034
#        159568
#        172123
#        184262
#        196021
#        207508
#        220707
#        232634
#        244659
#        258935
#
# Disc length: 3672 seconds
#
# Revision: 1
# Processed by: cddbd v1.5.2PL0 Copyright (c) Steve Scherf et al.
# Submitted via: ExactAudioCopyFreeDBPlugin 1.0
#
DISCID=230e5616
DTITLE=King Curtis - The Complete Atco Singles [Rhino Real Gone Music]
DYEAR=2015
DGENRE=Rhythm and Blues
TTITLE0=Jump Back
TTITLE1=When Something is Wrong with My Baby
TTITLE2=You Don't Miss Your Water
TTITLE3=Green Onions
TTITLE4=Memphis Soul Stew
TTITLE5=Blue Nocturne
TTITLE6=Ode to Billie Joe
TTITLE7=In the Pocket
TTITLE8=For What It's Worth
TTITLE9=Cook-Out
TTITLE10=I Was Made to Love Her
TTITLE11=I Never Loved a Man (The Way I Love You)
TTITLE12=(Sittin' On) The Dock of the Bay
TTITLE13=This is Soul
TTITLE14=Valley of the Dolls
TTITLE15=8th Wonder
TTITLE16=I Heard it Thru the Grapevine
TTITLE17=A Whiter Shade of Pale
TTITLE18=Harper Valley P.T.A.
TTITLE19=Makin' Hey
TTITLE20=The Christmas Song
TTITLE21=What Are You Doing New Year's Eve
EXTD=
EXTT0=
EXTT1=
EXTT2=
EXTT3=
EXTT4=
EXTT5=
EXTT6=
EXTT7=
EXTT8=
EXTT9=
EXTT10=
EXTT11=
EXTT12=
EXTT13=
EXTT14=
EXTT15=
EXTT16=
EXTT17=
EXTT18=
EXTT19=
EXTT20=
EXTT21=
PLAYORDER=
